<svg xmlns="http://www.w3.org/2000/svg" viewBox="0 0 100 100" width="40" height="40" aria-label="Puntero Verde">
  <!-- Sello circular verde esmeralda con degradado -->
  <defs>
    <radialGradient id="pvBg" cx="50%" cy="35%" r="80%">
      <stop offset="0%" stop-color="#3f9e4e"/>
      <stop offset="100%" stop-color="#14572a"/>
    </radialGradient>
    <linearGradient id="pvLeaf" x1="0" y1="0" x2="1" y2="1">
      <stop offset="0%" stop-color="#d6f5c8"/>
      <stop offset="100%" stop-color="#7bd37e"/>
    </linearGradient>
  </defs>

  <circle cx="50" cy="50" r="48" fill="url(#pvBg)"/>
  <circle cx="50" cy="50" r="44" fill="none" stroke="#eaffea" stroke-width="1.6" opacity=".6"/>

  <!-- Hoja -->
  <path d="M 50 18 C 80 24 86 52 76 68 C 66 84 38 84 24 74 C 44 70 52 56 50 44 C 48 56 42 62 30 66 C 18 54 22 28 50 18 Z" fill="url(#pvLeaf)"/>
  <path d="M 50 28 C 66 32 71 48 65 61 C 59 74 40 74 31 67 C 44 64 50 54 50 46 C 50 54 46 58 38 60 C 31 53 34 33 50 28 Z" fill="#eaffea" opacity=".85"/>
  <path d="M 50 30 L 50 72" stroke="#1d7a37" stroke-width="3.2" stroke-linecap="round"/>
  <path d="M 50 42 Q 63 38 72 30" fill="none" stroke="#1d7a37" stroke-width="3.2" stroke-linecap="round"/>
  <path d="M 50 52 Q 38 50 32 42" fill="none" stroke="#1d7a37" stroke-width="3.2" stroke-linecap="round"/>
  <path d="M 50 62 Q 61 60 68 52" fill="none" stroke="#1d7a37" stroke-width="3.2" stroke-linecap="round"/>
</svg>
